<svg width="100" height="100" viewBox="0 0 100 100" xmlns="http://www.w3.org/2000/svg" fill="none">
  <rect width="100" height="100" rx="20" fill="#3A3A60"/>
  <path d="M35 25C35 22.8 36.8 21 39 21H55C66 21 72 28 72 36C72 42 67 46 60 48C67 50 72 54 72 61C72 70 66 77 55 77H39C36.8 77 35 75.2 35 73V25Z" fill="#F0F0F5"/>
  <path d="M55 39C59.4183 39 63 35.4183 63 31C63 26.5817 59.4183 23 55 23H44V39H55Z" fill="#8F94FB"/>
  <path d="M55 65C59.4183 65 63 61.4183 63 57C63 52.5817 59.4183 49 55 49H44V65H55Z" fill="#8F94FB"/>
</svg>
